<?xml version="1.0" standalone="no"?>
<!DOCTYPE svg PUBLIC "-//W3C//DTD SVG 20010904//EN"
 "http://www.w3.org/TR/2001/REC-SVG-20010904/DTD/svg10.dtd">
<svg version="1.0" xmlns="http://www.w3.org/2000/svg"
 width="512.000000pt" height="512.000000pt" viewBox="0 0 512.000000 512.000000"
 preserveAspectRatio="xMidYMid meet">
<metadata>
Created by potrace 1.14, written by Peter Selinger 2001-2017
</metadata>
<g transform="translate(0.000000,512.000000) scale(0.100000,-0.100000)"
fill="#000000" stroke="none">
<path d="M2050 5110 c0 -5 7 -10 15 -10 8 0 15 5 15 10 0 6 -7 10 -15 10 -8 0
-15 -4 -15 -10z"/>
<path d="M2163 5113 c9 -2 23 -2 30 0 6 3 -1 5 -18 5 -16 0 -22 -2 -12 -5z"/>
<path d="M2498 5108 c8 -8 17 -8 34 0 22 10 21 11 -11 11 -27 1 -32 -2 -23
-11z"/>
<path d="M48 5062 l-48 -3 0 -2529 0 -2530 823 2 c452 1 798 3 768 5 -68 5
-103 27 -99 62 4 34 -26 58 -80 64 -36 3 -42 1 -42 -15 0 -10 6 -21 14 -24 8
-3 11 -15 8 -32 -9 -49 -19 -54 -96 -46 -39 3 -97 6 -128 6 -117 -1 -165 0
-238 3 -41 2 -124 3 -185 3 -142 -1 -129 -1 -210 2 -38 1 -73 8 -77 14 -5 7
-8 4 -8 -7 0 -15 -5 -17 -23 -11 -38 13 -171 11 -185 -3 -8 -7 -18 -11 -23 -8
-14 9 -11 59 5 80 12 17 18 18 37 8 13 -7 31 -13 39 -15 27 -4 121 13 141 25
17 10 23 9 35 -7 13 -18 20 -19 94 -10 60 7 92 6 123 -3 32 -10 47 -10 64 -2
12 7 34 9 50 5 63 -16 96 -18 118 -6 18 10 27 9 46 -1 13 -7 38 -12 55 -11 25
2 33 -3 44 -25 12 -26 13 -27 20 -8 4 11 5 26 2 34 -4 11 1 12 24 6 33 -8 36
-9 87 -7 21 1 36 6 33 11 -4 5 11 4 31 -2 28 -9 37 -9 40 0 3 9 12 9 29 2 36
-13 51 -12 36 3 -7 7 -12 19 -12 29 0 13 -15 18 -77 23 -43 4 -87 8 -98 8 -11
1 -47 7 -81 14 -48 11 -85 12 -170 3 -60 -5 -145 -9 -189 -9 -96 2 -118 -1
-128 -17 -8 -13 -89 -18 -100 -6 -14 14 -68 13 -73 -1 -5 -13 -11 -12 -40 2
-18 9 -34 24 -35 32 0 8 -5 4 -9 -10 -5 -17 -8 -19 -9 -7 -1 21 -2 21 -37 3
-28 -15 -72 -12 -109 8 -11 5 -25 9 -31 8 -7 -1 -14 17 -18 40 -8 55 -27 478
-22 486 2 4 -5 52 -15 107 -20 113 -24 175 -9 175 6 0 11 -15 11 -32 1 -27 3
-28 6 -9 4 19 7 21 14 10 5 -9 6 -1 3 22 -5 31 -2 40 21 62 26 24 29 24 63 10
42 -18 56 -31 60 -59 3 -23 -43 -68 -59 -58 -5 3 -9 1 -9 -5 0 -6 -7 -8 -15
-5 -8 4 -15 1 -15 -4 0 -6 14 -10 31 -10 41 1 67 -27 72 -80 4 -41 3 -43 -19
-38 -28 7 -42 -10 -15 -19 10 -3 31 -30 45 -59 31 -62 31 -62 10 -70 -12 -4
-14 -1 -9 14 8 25 0 25 -26 1 -20 -18 -20 -18 6 -50 30 -35 50 -41 42 -11 -6
23 -3 24 24 10 10 -6 19 -17 19 -25 0 -8 9 -15 21 -15 15 0 19 -4 14 -19 -3
-11 -1 -23 6 -26 10 -7 9 43 -2 110 -3 15 1 19 16 17 16 -3 18 -1 7 9 -15 16
-16 50 -1 83 9 19 9 29 1 39 -22 26 -42 228 -52 522 -5 165 -15 361 -21 435
-11 139 -21 447 -14 420 2 -8 11 -91 21 -185 9 -93 22 -183 29 -200 l13 -30
10 25 c13 32 20 15 24 -55 2 -30 8 -50 15 -50 6 0 15 -3 19 -7 4 -5 1 -8 -7
-8 -9 0 -10 -3 -3 -8 6 -4 15 -22 19 -41 6 -29 5 -33 -9 -28 -11 4 -16 1 -17
-11 0 -9 -2 -27 -5 -39 -3 -19 1 -23 20 -23 14 0 28 -4 31 -10 3 -5 -3 -10
-13 -10 -11 0 -27 -11 -35 -24 -14 -21 -14 -26 -1 -45 19 -26 44 -27 44 -2 0
12 -8 21 -22 24 -13 2 -3 4 22 4 25 0 48 -4 52 -11 14 -20 8 -36 -13 -36 -16
0 -19 -4 -14 -22 4 -13 18 -32 31 -44 15 -12 28 -37 33 -65 5 -25 9 -34 10
-20 1 24 1 24 17 5 15 -18 15 -17 8 11 -12 52 -16 235 -5 235 10 0 25 -18 27
-35 0 -5 2 -17 3 -25 1 -9 8 -4 17 14 15 26 15 30 0 38 -9 5 -16 14 -16 20 0
7 5 7 14 -1 10 -8 16 -9 21 -1 4 6 -6 13 -24 16 -35 7 -47 19 -56 55 -8 32 9
46 31 28 13 -10 17 -10 24 0 10 18 60 17 71 0 6 -10 9 -11 9 -1 0 6 9 12 19
12 14 0 20 -9 24 -38 5 -43 -8 -66 -35 -59 -22 6 -22 6 -3 -29 8 -16 15 -52
15 -80 0 -28 4 -64 9 -80 17 -51 22 -126 8 -117 -9 5 -9 3 1 -9 6 -8 13 -28
15 -44 2 -16 6 -36 10 -44 17 -42 36 -124 30 -133 -4 -6 0 -8 9 -4 10 3 20 -3
29 -20 7 -13 21 -29 31 -34 24 -13 23 -4 -2 21 -25 25 -27 85 -4 94 36 14 74
6 90 -19 8 -13 13 -29 9 -35 -3 -5 -1 -10 5 -10 6 0 10 10 8 23 -3 21 0 22 87
23 50 1 100 5 112 9 17 5 23 3 23 -7 0 -10 10 -15 30 -14 16 1 30 4 30 8 0 15
75 20 126 8 41 -10 63 -11 90 -2 47 14 64 6 64 -30 0 -18 4 -27 10 -23 6 4 8
15 5 24 -6 20 23 51 45 47 43 -7 60 -20 69 -49 6 -22 10 -26 11 -12 4 56 10
79 22 86 10 7 10 9 -2 10 -8 1 -22 3 -30 4 -8 1 -38 3 -67 4 -47 1 -52 4 -60
28 l-10 28 -6 -28 c-4 -15 -11 -27 -16 -27 -12 0 -22 45 -15 64 7 18 44 22 44
5 0 -5 5 -7 12 -3 6 4 37 6 69 5 52 -2 60 1 75 23 20 32 51 33 65 3 9 -19 16
-22 60 -18 40 2 55 -1 72 -17 27 -24 57 -25 57 -1 0 35 89 36 110 1 6 -11 9
-12 10 -4 0 10 22 13 90 11 50 -1 93 1 97 5 3 3 26 6 50 6 44 0 44 0 41 -35
-1 -19 1 -37 5 -41 4 -4 7 4 7 19 0 44 10 57 44 57 18 0 41 -6 51 -14 14 -10
26 -11 43 -5 13 5 47 6 76 3 32 -4 61 -2 73 5 15 8 30 8 52 0 21 -8 40 -8 60
-1 19 7 32 7 39 0 10 -10 115 -6 200 7 27 5 42 3 42 -3 0 -7 24 -10 63 -9 61
2 71 -1 113 -41 8 -7 18 -11 23 -8 5 4 11 -2 13 -11 3 -13 9 -8 22 20 22 45
56 48 67 7 l6 -25 4 25 c4 25 4 25 103 23 54 -2 105 -8 112 -14 18 -14 27 21
15 54 -7 17 -7 28 -1 32 11 7 13 48 4 93 -5 24 -10 29 -28 25 -17 -4 -18 -3
-6 6 12 9 11 11 -7 11 -13 0 -23 -5 -23 -11 0 -8 -4 -8 -14 0 -11 9 -16 9 -21
0 -9 -14 12 -29 42 -29 28 0 53 -25 53 -53 0 -30 -11 -44 -43 -56 -36 -14 -64
0 -73 36 -7 27 -7 27 -16 4 -11 -30 -31 -22 -39 15 l-6 29 -4 -35 c-4 -33 -6
-35 -44 -37 -22 -1 -54 -4 -71 -7 -40 -6 -55 4 -63 44 -3 19 -12 35 -20 38 -9
3 -11 -2 -6 -17 4 -12 2 -21 -4 -21 -6 0 -11 5 -11 11 0 5 -4 8 -9 5 -5 -3 -7
-15 -4 -27 7 -27 -10 -37 -63 -37 l-43 0 5 46 c4 35 3 43 -5 32 -6 -8 -11 -25
-11 -38 0 -18 -5 -23 -22 -20 -18 2 -24 11 -29 38 -5 35 -6 35 -13 8 -5 -15
-3 -35 4 -47 9 -18 8 -21 -10 -21 -24 0 -31 15 -33 70 -1 22 -6 40 -10 40 -5
0 -5 10 -1 22 6 20 5 21 -9 10 -12 -10 -16 -10 -20 0 -2 7 -7 10 -11 7 -3 -3
3 -17 14 -32 22 -28 25 -49 9 -78 -9 -18 -20 -20 -117 -18 -59 0 -111 0 -117
-1 -5 -1 -12 -1 -15 0 -8 3 -193 11 -220 9 -14 -1 -50 -3 -80 -3 -51 -1 -55 1
-64 27 -14 39 3 62 43 61 25 -2 31 2 32 20 1 20 1 20 7 1 4 -12 15 -20 27 -20
11 1 35 2 53 3 31 2 47 22 17 22 -9 0 -25 9 -37 20 -12 11 -35 20 -52 20 -16
0 -26 3 -23 6 3 4 2 15 -3 25 -8 14 -6 18 13 22 19 4 18 4 -5 6 -17 0 -32 9
-39 23 -24 45 -53 61 -62 36 -3 -10 -8 -9 -22 2 -13 11 -19 12 -22 3 -2 -7
-11 -9 -20 -6 -8 3 -19 0 -25 -8 -7 -11 -11 -11 -15 -1 -6 14 -53 17 -53 2 0
-5 6 -10 13 -10 23 0 45 -33 42 -62 -2 -16 1 -28 5 -28 5 0 10 17 12 37 3 37
4 38 45 41 34 3 44 -1 53 -18 31 -57 -22 -117 -79 -89 -14 7 -37 13 -50 13
-18 1 -27 8 -32 26 -6 22 -7 23 -8 4 -2 -39 -24 -47 -103 -37 -40 6 -93 9
-118 7 -25 -2 -59 1 -75 5 -17 5 -41 4 -54 -1 -38 -13 -58 -1 -63 37 -2 18 0
31 4 29 4 -3 8 0 8 5 0 15 47 14 52 -1 6 -17 28 0 28 22 0 14 -10 21 -37 25
-66 11 -73 16 -88 51 -8 19 -25 39 -39 46 -28 12 -33 27 -14 46 19 19 3 25
-59 25 -68 -1 -90 9 -95 39 -3 22 -4 22 -18 -6 -17 -34 -40 -46 -40 -21 0 15
-2 15 -22 1 -29 -20 -52 -20 -72 0 -18 17 -22 69 -6 79 36 22 100 7 100 -24 0
-12 2 -13 8 -3 5 6 19 12 33 12 13 0 48 1 77 3 29 2 55 -1 58 -5 3 -5 16 0 29
11 36 28 89 15 93 -22 4 -33 9 -33 36 -4 12 13 29 28 38 33 8 5 19 19 22 32 6
17 3 22 -11 22 -11 0 -24 5 -31 12 -9 9 -12 9 -12 1 0 -13 -137 -12 -158 1
-36 22 9 79 72 90 37 7 38 7 32 -18 -3 -13 -3 -33 1 -43 6 -14 9 -10 13 17 6
41 34 53 44 18 4 -15 9 -19 13 -12 5 7 50 14 106 17 106 6 102 7 149 -51 19
-24 43 -30 35 -9 -2 6 -1 22 4 35 8 20 15 22 79 22 43 0 70 4 70 11 0 6 10 9
23 7 19 -3 21 -8 19 -37 -2 -20 0 -31 6 -27 6 4 8 -2 5 -14 -4 -16 -2 -19 11
-14 9 3 16 14 16 24 0 46 81 67 122 33 14 -13 17 -12 23 6 8 27 32 27 41 -1 5
-18 8 -19 15 -5 8 13 20 15 59 10 33 -4 55 -2 65 7 8 7 23 9 32 5 10 -4 40 -8
68 -10 33 -3 54 -10 62 -22 34 -50 53 -57 53 -19 0 37 25 56 63 50 17 -3 63
-8 100 -11 52 -4 70 -9 73 -22 3 -9 10 -24 15 -34 6 -10 7 -27 4 -38 -6 -19 9
-27 19 -10 3 5 16 7 27 4 21 -6 21 -5 4 20 -25 38 -13 77 23 77 42 0 72 11 72
26 0 8 5 14 10 14 6 0 10 5 10 10 0 6 -6 10 -14 10 -8 0 -24 14 -37 31 -13 16
-32 40 -41 51 -10 12 -18 26 -18 33 0 13 -59 85 -70 85 -3 0 -6 -16 -6 -35 1
-19 5 -35 9 -35 6 0 4 -112 -2 -138 -1 -2 -6 0 -11 3 -6 4 -8 11 -5 16 4 5 2
9 -4 9 -5 0 -13 -4 -16 -10 -3 -5 -14 -10 -23 -10 -16 1 -16 1 1 11 9 5 17 18
17 28 0 16 -9 19 -61 20 -33 0 -64 3 -70 6 -5 4 -9 1 -9 -5 0 -6 -10 -10 -22
-8 -17 2 -24 11 -26 32 -2 17 0 26 7 22 6 -4 11 9 13 31 2 21 6 37 11 36 4 -2
17 7 28 18 18 18 20 29 15 68 -3 26 -3 51 1 55 5 4 8 11 8 16 0 14 45 70 56
70 8 0 9 -15 4 -45 l-6 -46 28 8 c15 4 40 7 55 6 14 -1 32 4 38 12 7 8 17 15
23 15 5 0 16 8 23 18 12 16 13 15 14 -7 0 -16 4 -21 15 -17 8 3 15 1 15 -4 0
-6 -4 -10 -10 -10 -5 0 -10 -7 -10 -15 0 -20 51 -9 64 13 7 12 10 12 17 1 7
-11 9 -11 9 2 0 9 18 30 39 47 35 28 43 31 65 20 17 -7 26 -19 26 -35 0 -15 6
-23 16 -23 9 0 27 -11 40 -25 13 -14 28 -25 34 -25 5 0 10 -8 10 -18 0 -11 7
-18 20 -18 17 0 20 6 19 41 -2 30 -3 33 -6 13 -6 -39 -25 -35 -21 5 2 20 8 32
18 32 11 0 17 -19 22 -80 6 -69 11 -83 36 -108 23 -22 34 -27 55 -22 15 4 27
13 27 21 0 16 -12 18 -26 4 -6 -6 -15 -6 -24 1 -13 8 -12 12 5 25 l20 16 -20
-6 c-38 -11 -44 2 -37 87 3 24 30 22 34 -3 l3 -20 38 20 c33 18 40 19 53 6 13
-13 12 -16 -1 -23 -22 -13 -5 -69 21 -65 10 1 44 5 74 8 79 7 82 9 70 40 l-11
27 44 -6 c26 -4 48 -2 54 4 8 8 17 8 31 0 22 -12 72 6 72 25 0 7 7 14 15 18 8
3 15 12 15 21 0 24 20 17 30 -11 7 -18 15 -24 28 -20 11 3 23 -5 37 -27 11
-17 29 -33 40 -35 11 -2 33 -17 48 -34 15 -16 35 -31 45 -32 11 -2 16 -10 14
-24 -3 -17 2 -21 26 -20 38 1 60 -11 41 -23 -10 -6 -11 -11 -2 -20 8 -8 13 -6
17 8 4 11 18 25 31 31 14 6 25 17 25 23 0 22 134 2 176 -26 20 -14 41 -25 45
-25 5 0 11 -11 15 -25 3 -13 9 -23 13 -22 11 3 61 -59 61 -76 0 -8 6 -20 13
-26 8 -6 25 -32 38 -58 13 -27 32 -54 41 -61 22 -16 24 -52 3 -52 -20 0 -19
-7 4 -32 14 -15 18 -29 14 -49 -3 -17 -1 -29 5 -29 13 0 22 -48 9 -53 -5 -1
-9 -16 -9 -32 0 -17 -5 -33 -12 -37 -7 -5 -6 -8 4 -8 11 0 12 -2 3 -8 -19 -12
4 -87 36 -120 37 -37 63 -81 56 -92 -3 -6 1 -10 9 -10 9 0 16 -4 16 -10 0 -5
-6 -9 -12 -7 -9 1 -12 -12 -10 -47 1 -27 -3 -55 -9 -62 -6 -8 -8 -14 -3 -14
27 1 35 23 44 131 6 63 15 137 20 164 6 28 12 98 14 156 2 66 8 114 17 129 12
21 14 287 17 1677 l2 1652 -140 -4 c-87 -3 -147 -9 -159 -17 -16 -10 -23 -10
-33 0 -17 17 -58 15 -58 -3 0 -18 -10 -18 -118 -3 -63 9 -87 9 -102 1 -14 -10
-19 -9 -24 2 -7 20 -66 20 -66 0 0 -18 -20 -20 -20 -2 0 7 -5 5 -11 -5 -11
-19 -43 -13 -35 7 3 9 -10 13 -47 13 -51 0 -82 -7 -143 -34 -17 -7 -44 -13
-60 -12 -16 1 -35 0 -43 -3 -10 -3 -17 8 -23 33 -7 24 -17 38 -31 42 -28 7
-467 0 -526 -9 -25 -3 -76 -1 -115 7 -39 7 -79 12 -89 10 -10 -1 -15 3 -12 8
4 6 -30 9 -97 8 -92 -1 -97 -2 -43 -8 52 -6 54 -9 10 -14 -5 -1 -16 -5 -24
-10 -8 -5 -16 -4 -21 3 -4 7 -11 11 -16 10 -20 -4 -35 2 -29 11 4 6 -53 10
-152 10 -183 1 -541 6 -1152 15 l-433 7 3 -131 c3 -94 1 -133 -8 -142 -7 -7
-15 -11 -17 -8 -3 3 -8 67 -12 142 l-7 137 -261 0 c-144 0 -407 1 -586 2 -179
2 -346 2 -372 0z m3189 -38 c-3 -3 -12 -4 -19 -1 -8 3 -5 6 6 6 11 1 17 -2 13
-5z m-1776 -61 c36 -39 -1 -99 -55 -89 -16 4 -35 11 -43 17 -19 16 -16 66 5
79 18 11 80 6 93 -7z m95 -30 c6 -20 2 -31 -16 -45 -29 -24 -43 -23 -30 1 5
11 10 31 10 45 0 35 28 34 36 -1z m296 4 c23 -36 -7 -69 -57 -65 -44 3 -52 18
-35 62 9 26 13 28 48 21 20 -4 40 -12 44 -18z m-225 6 c-3 -5 1 -14 9 -20 14
-14 30 0 19 17 -3 6 3 10 14 10 12 0 20 -6 19 -12 -4 -19 -53 -49 -69 -43 -19
7 -21 55 -2 55 8 0 12 -3 10 -7z m103 -23 c0 -18 -6 -33 -15 -37 -22 -8 -26
-1 -19 35 8 42 34 42 34 2z m-900 -263 c0 -38 -13 -67 -30 -67 -4 0 -5 19 -4
43 2 23 3 48 3 55 1 6 8 12 16 12 11 0 15 -11 15 -43z m-67 -14 c6 -55 3 -63
-23 -63 -23 0 -35 29 -15 37 12 4 13 9 4 19 -13 16 -3 54 15 54 8 0 15 -18 19
-47z m455 -6 c4 -41 22 -41 22 -1 0 14 7 27 15 31 19 7 20 5 28 -28 7 -28 -20
-75 -29 -52 -4 10 -11 10 -25 2 -11 -5 -24 -7 -29 -4 -12 8 -24 71 -15 85 13
21 30 4 33 -33z m198 8 c-1 -43 17 -51 24 -10 7 39 31 39 42 0 10 -38 -1 -48
-57 -51 -56 -4 -70 15 -50 64 19 44 43 42 41 -3z m123 3 c-6 -11 -8 -26 -5
-35 9 -22 38 4 34 31 -4 31 30 34 38 2 12 -47 2 -61 -45 -64 -50 -4 -61 6 -61
55 0 31 14 44 37 36 9 -4 10 -10 2 -25z m-597 -10 c-13 -26 -17 -29 -20 -15
-5 26 5 47 22 47 12 0 12 -5 -2 -32z m154 21 c4 -8 9 -8 17 0 27 27 56 -6 42
-48 -5 -17 -14 -19 -58 -16 -28 2 -59 -1 -68 -6 -38 -20 -71 22 -47 60 10 16
23 21 60 21 26 0 50 -5 54 -11z m256 -151 c-7 -7 -12 -34 -12 -60 0 -26 -4
-48 -10 -48 -11 0 -14 103 -3 113 3 4 13 7 22 7 12 0 12 -3 3 -12z m42 6 c10
-4 16 -18 16 -38 0 -30 -15 -65 -23 -56 -5 6 -16 100 -12 100 2 0 10 -3 19 -6z
m-244 -28 c0 -14 7 -31 15 -40 8 -8 15 -19 15 -24 0 -11 -51 -23 -63 -15 -8 5
0 79 10 96 9 16 23 6 23 -17z m130 -32 c0 -57 -21 -55 -25 1 -3 44 2 58 16 50
5 -4 9 -27 9 -51z m321 23 c-18 -18 -13 -29 8 -17 28 14 31 13 32 -12 0 -22 1
-22 9 -3 14 36 36 46 92 43 52 -3 53 -3 56 -38 4 -43 -22 -68 -47 -46 -17 16
-129 24 -150 12 -40 -25 -59 50 -18 77 23 16 38 4 18 -16z m-572 1 c10 -28 -6
-78 -25 -78 -18 0 -35 35 -27 57 16 46 39 55 52 21z m55 -5 c-10 -42 -24 -52
-24 -17 0 31 6 44 22 44 5 0 5 -12 2 -27z m773 -15 c0 -50 -8 -69 -17 -44 -7
22 0 86 10 86 4 0 7 -19 7 -42z m535 36 c4 -3 0 -17 -8 -32 -10 -20 -11 -28
-1 -34 15 -10 28 -10 25 0 -4 16 14 53 25 49 15 -5 19 -57 6 -73 -12 -14 -75
-10 -95 7 -20 17 -17 45 8 69 23 21 31 24 40 14z m242 -40 c7 -36 -9 -73 -25
-57 -10 10 1 104 11 98 4 -3 11 -21 14 -41z m-1416 0 c-3 -42 -13 -52 -27 -25
-18 33 -13 61 9 61 17 0 20 -6 18 -36z m258 0 c-6 -44 -12 -51 -34 -37 -27 17
-8 73 24 73 10 0 13 -10 10 -36z m454 32 c0 -2 -6 -18 -14 -36 -15 -36 -29
-20 -15 18 7 18 29 32 29 18z m204 -29 c8 -32 -23 -60 -53 -49 -13 4 -45 5
-73 2 -55 -7 -72 7 -61 49 5 21 11 22 74 19 37 -1 71 1 74 4 12 11 33 -3 39
-25z m53 -12 c-2 -33 -6 -44 -15 -40 -8 3 -16 5 -18 5 -2 0 -4 18 -4 40 0 33
3 40 19 40 17 0 19 -7 18 -45z m331 36 c11 -7 11 -9 -2 -14 -9 -4 -16 -16 -16
-27 0 -33 34 -21 38 13 5 44 52 27 52 -19 0 -28 -10 -35 -58 -39 -46 -4 -62 9
-62 50 0 44 16 56 48 36z m182 -34 c0 -36 -15 -65 -27 -54 -8 8 -5 76 4 90 9
16 23 -5 23 -36z m-1162 2 c2 -20 -2 -28 -17 -32 -12 -3 -24 -1 -27 4 -3 5 0
9 6 9 8 0 10 9 6 26 -6 21 -4 25 11 22 11 -2 19 -14 21 -29z m720 -7 c2 -22
-2 -34 -13 -38 -20 -8 -38 9 -41 38 -2 32 4 40 29 36 17 -2 23 -11 25 -36z
m-1222 -136 c-4 -23 -2 -37 8 -45 18 -15 26 4 19 42 -7 35 24 38 33 3 11 -44
1 -61 -34 -60 -18 1 -32 -2 -32 -7 0 -16 -29 -9 -39 9 -17 33 6 92 36 92 12 0
14 -8 9 -34z m134 29 c0 -3 -6 -14 -12 -25 -9 -14 -10 -25 -3 -36 17 -27 30
-16 28 25 -1 34 1 38 19 33 30 -8 44 -47 28 -77 -11 -21 -20 -25 -52 -23 -35
2 -39 5 -49 41 -13 47 -6 67 21 67 11 0 20 -2 20 -5z m520 -102 c0 -2 -9 -3
-20 -3 -18 0 -20 6 -19 58 l0 57 19 -55 c11 -30 20 -56 20 -57z m76 95 c42
-36 45 -41 39 -67 -8 -33 -23 -51 -42 -51 -13 0 -13 3 -3 15 16 19 4 85 -15
85 -15 0 -30 -35 -20 -50 3 -5 2 -10 -3 -10 -6 0 -13 7 -16 16 -21 54 20 95
60 62z m669 -48 c1 -42 -3 -60 -12 -60 -7 0 -13 10 -13 23 0 20 18 97 23 97 1
0 2 -27 2 -60z m-920 30 c25 0 35 -6 44 -27 10 -21 9 -28 -1 -34 -16 -11 -118
-12 -119 -1 -7 41 -5 59 9 70 11 8 19 9 26 2 5 -5 24 -10 41 -10z m100 -57
c-8 -25 -22 -13 -28 24 -8 49 15 67 25 20 4 -18 5 -38 3 -44z m-255 52 c18
-21 5 -45 -25 -45 -14 0 -28 7 -31 15 -7 17 12 45 31 45 7 0 18 -7 25 -15z
m565 -2 c-3 -10 -9 -30 -12 -45 -3 -15 -9 -25 -14 -22 -13 8 -11 58 3 72 18
18 31 15 23 -5z m188 -13 c-7 -27 12 -25 32 2 20 30 50 13 50 -28 0 -23 -5
-30 -24 -32 -13 -2 -28 1 -34 7 -16 16 -27 14 -27 -5 0 -9 -7 -14 -17 -12 -14
3 -17 12 -14 43 3 38 17 59 32 49 4 -2 5 -13 2 -24z m651 -21 c-1 -30 -6 -44
-15 -44 -17 0 -31 66 -17 83 19 23 33 6 32 -39z m201 9 c-2 -24 -4 -47 -4 -51
-1 -5 -11 -7 -23 -5 -30 4 -35 40 -11 72 28 39 42 33 38 -16z m243 10 c9 -35
2 -70 -16 -76 -7 -2 -10 17 -9 52 1 63 12 72 25 24z m-1216 -18 c-5 -42 -6
-44 -27 -37 -9 4 -15 18 -15 35 0 33 8 44 30 40 11 -2 14 -13 12 -38z m58 0
c0 -32 -4 -40 -18 -40 -16 0 -18 7 -16 38 2 20 3 38 3 40 1 1 8 2 16 2 11 0
15 -11 15 -40z m193 33 c3 -5 8 -23 12 -40 5 -26 3 -33 -9 -33 -9 0 -16 4 -16
9 0 5 -3 23 -6 40 -6 28 7 44 19 24z m78 -31 c7 -34 3 -42 -18 -42 -9 0 -13
13 -13 41 0 49 21 49 31 1z m189 33 c0 -2 -9 -19 -20 -37 -18 -30 -19 -30 -18
-7 2 26 15 49 29 49 5 0 9 -2 9 -5z m190 -21 c7 -17 7 -32 0 -45 -13 -24 -40
-25 -40 -1 0 13 -2 14 -9 3 -11 -18 -109 -20 -120 -3 -4 8 -6 24 -3 38 4 22 9
24 58 24 29 0 56 -5 59 -10 4 -6 12 -4 21 5 20 20 23 19 34 -11z m382 -7 c-2
-15 0 -31 3 -37 11 -17 35 9 35 36 0 14 6 24 14 24 28 0 37 -74 10 -84 -26
-10 -69 -7 -82 6 -13 13 -16 70 -5 82 14 14 28 -2 25 -27z m-702 -17 c0 -41
-7 -49 -28 -28 -13 13 -16 50 -5 61 19 19 33 5 33 -33z m456 14 c8 -30 -16
-60 -40 -51 -16 6 -23 57 -9 70 16 16 43 6 49 -19z m187 -6 c6 -41 2 -48 -29
-48 -28 0 -28 -2 -9 44 19 45 31 46 38 4z m-1933 -115 c0 -21 4 -44 9 -52 12
-19 43 -6 40 16 0 10 -1 29 0 43 2 36 17 6 24 -47 l5 -43 -48 0 c-47 0 -69 17
-54 41 7 12 -5 49 -16 49 -13 0 -23 -54 -11 -58 17 -6 13 -29 -6 -36 -19 -8
-43 17 -43 43 1 20 24 51 37 51 6 0 16 7 23 15 23 27 40 18 40 -22z m151 -22
c0 -11 3 -9 9 7 5 12 16 22 25 22 9 0 15 -9 15 -22 0 -13 3 -33 6 -45 5 -20 2
-23 -20 -23 -20 0 -26 5 -27 23 l-2 22 -4 -23 c-3 -17 -10 -22 -26 -20 -25 3
-36 50 -17 73 14 17 40 9 41 -14z m116 -19 c1 -48 -8 -59 -31 -36 -16 16 -22
65 -9 78 19 19 38 -1 40 -42z m323 29 c0 -10 3 -33 6 -50 6 -26 4 -31 -14 -31
-22 0 -34 43 -20 79 9 26 28 28 28 2z m53 -33 c-2 -68 -2 -65 -13 -48 -11 17
-13 83 -3 93 14 15 18 5 16 -45z m321 1 c0 -31 -5 -44 -15 -44 -15 0 -25 55
-15 82 12 30 31 6 30 -38z m216 42 c0 -6 -5 -13 -11 -17 -6 -3 -9 -19 -7 -35
6 -40 -18 -61 -38 -34 -15 21 -10 50 14 78 16 18 42 23 42 8z m235 -31 c7 -44
-1 -80 -18 -80 -8 0 -12 21 -13 60 -1 70 20 84 31 20z m-1023 -6 c3 -26 0 -38
-13 -44 -22 -12 -29 -3 -29 35 0 57 36 65 42 9z m68 -4 c0 -36 -2 -40 -25 -40
-17 0 -25 5 -25 18 0 37 13 62 31 62 15 0 19 -7 19 -40z m60 25 c0 -8 5 -15
11 -15 5 0 8 -4 4 -9 -3 -5 -1 -12 5 -16 22 -13 8 -25 -30 -25 -36 0 -40 3
-40 24 0 13 3 31 6 40 8 20 44 21 44 1z m186 -7 c-3 -13 -6 -30 -6 -37 0 -11
-3 -12 -11 -4 -14 14 -4 63 12 63 7 0 9 -9 5 -22z m139 -5 c12 -28 25 -30 25
-3 0 35 27 22 35 -16 7 -39 -9 -62 -30 -44 -7 5 -36 8 -65 6 -65 -5 -80 0 -80
26 0 41 18 57 63 55 33 -2 44 -7 52 -24z m193 15 c30 -30 4 -96 -32 -82 -28
11 -16 94 14 94 3 0 11 -5 18 -12z m190 -57 c-2 -15 -9 -26 -18 -26 -11 0 -15
12 -15 48 l-1 49 19 -23 c10 -12 17 -34 15 -48z m65 53 c-1 -5 -4 -16 -7 -24
-3 -8 -1 -22 4 -30 9 -13 11 -13 20 0 6 8 8 25 5 38 -4 15 -1 22 9 22 22 0 38
-26 34 -57 -3 -26 -6 -28 -47 -28 -41 0 -45 2 -53 30 -10 39 -1 67 20 62 10
-2 16 -7 15 -13z m-1966 -300 c8 -21 -15 -94 -30 -94 -12 0 -13 63 -2 98 6 17
24 15 32 -4z m-123 -29 c-4 -23 -2 -35 5 -35 6 0 11 8 11 19 0 10 7 25 16 32
31 26 52 -38 28 -82 -2 -4 -25 -6 -51 -5 -42 1 -49 4 -57 28 -11 30 13 78 40
78 12 0 14 -7 8 -35z m625 -26 c0 -44 -3 -59 -12 -56 -14 4 -21 59 -13 93 11
44 24 25 25 -37z m57 35 c0 -10 8 -36 17 -58 21 -47 21 -47 0 -39 -30 10 -43
35 -43 81 0 30 4 42 13 39 6 -2 12 -12 13 -23z m509 4 c11 -55 10 -93 -4 -93
-14 0 -44 93 -34 107 9 16 33 7 38 -14z m-944 5 c2 -23 10 -57 14 -61 3 -3 8
9 11 27 8 39 23 50 37 25 17 -31 13 -78 -7 -82 -10 -2 -23 1 -29 7 -7 7 -16 7
-29 0 -10 -5 -23 -7 -28 -4 -11 7 -13 55 -4 79 6 16 33 23 35 9z m129 -6 c0
-7 -4 -17 -9 -22 -5 -6 -11 -19 -13 -30 -5 -19 -5 -19 -13 -2 -4 10 -3 29 3
43 12 26 32 33 32 11z m424 5 c10 -16 -6 -81 -26 -101 -10 -12 -26 -21 -36
-21 -13 0 -12 3 6 16 18 12 22 25 22 65 0 36 4 49 14 49 8 0 17 -4 20 -8z
m772 -16 c9 -38 1 -91 -16 -94 -12 -2 -15 9 -15 58 0 41 4 60 12 60 7 0 15
-11 19 -24z m-1064 2 c7 -21 -6 -71 -19 -75 -19 -7 -35 44 -23 68 12 21 36 25
42 7z m58 0 c-1 -7 -7 -26 -15 -43 l-13 -30 -1 43 c-1 31 3 42 14 42 8 0 15
-6 15 -12z m445 -35 c1 -56 -21 -65 -35 -15 -15 54 -13 64 12 60 19 -2 22 -10
23 -45z m-122 22 c8 -20 0 -57 -14 -66 -18 -11 -35 -1 -48 29 -11 22 -10 28 5
39 24 17 51 16 57 -2z m58 -18 c8 -28 -11 -64 -28 -54 -8 5 -10 51 -4 85 3 14
26 -9 32 -31z m375 -9 c2 -32 -1 -41 -26 -58 -32 -23 -46 -25 -55 -9 -4 6 0 9
11 7 16 -2 20 4 22 37 4 55 9 67 28 63 11 -2 17 -16 20 -40z m186 4 c-2 -18 1
-32 7 -32 6 0 11 -7 11 -15 0 -17 -25 -20 -35 -5 -9 15 -15 71 -9 82 12 19 29
0 26 -30z m-1072 -1 c0 -38 -16 -48 -30 -20 -14 25 -6 49 15 49 10 0 15 -10
15 -29z m958 -9 c2 -23 -2 -34 -13 -38 -25 -10 -38 10 -30 46 9 42 39 37 43
-8z m54 26 c-5 -7 -12 -24 -15 -38 -3 -18 -5 -15 -6 13 -1 28 3 37 15 37 12 0
14 -3 6 -12z m184 -64 c-9 -22 -26 -7 -22 19 3 12 5 29 6 37 1 8 6 2 12 -13 5
-15 7 -35 4 -43z m-560 0 c-8 -20 -36 -17 -36 4 0 28 22 46 33 26 5 -8 6 -22
3 -30z m-378 -118 c-2 -18 -9 -32 -19 -34 -12 -2 -15 8 -16 48 -1 50 0 51 19
34 12 -12 18 -28 16 -48z m-438 31 c0 -13 5 -28 11 -34 8 -8 4 -15 -12 -27
-13 -9 -27 -16 -31 -16 -10 0 -11 84 -1 93 14 15 33 6 33 -16z m571 -27 c-1
-25 -5 -49 -8 -53 -8 -14 -30 12 -37 45 -7 35 8 61 33 56 12 -3 15 -13 12 -48z
m300 39 c16 -8 19 -17 14 -40 -4 -19 -3 -29 5 -29 7 0 10 7 6 15 -6 17 19 45
40 45 12 0 14 -10 12 -42 -2 -32 -7 -42 -18 -39 -8 2 -27 4 -42 5 -36 2 -42
10 -43 56 -1 45 -2 44 26 29z m267 -22 c22 -45 -7 -97 -53 -97 -27 0 -54 33
-49 58 14 76 12 73 52 70 29 -2 40 -9 50 -31z m-1000 -8 c3 -28 -16 -43 -42
-33 -38 14 -22 68 18 62 14 -2 22 -12 24 -29z m114 6 c0 -14 1 -31 2 -37 1 -7
-8 -13 -19 -13 -15 0 -20 7 -21 30 -1 37 3 45 22 45 8 0 15 -11 16 -25z m59
18 c9 -61 2 -92 -20 -79 -17 11 -14 86 4 86 8 0 16 -3 16 -7z m58 -17 c-8 -17
-8 -29 1 -46 10 -19 9 -21 -7 -18 -32 6 -31 88 1 88 13 0 14 -4 5 -24z m326
-12 c7 -40 -5 -60 -29 -51 -18 7 -20 25 -6 61 13 36 27 32 35 -10z m313 -8 c0
-11 1 -28 3 -36 2 -8 -3 -15 -11 -15 -15 0 -32 58 -23 82 8 20 33 -4 31 -31z
m-502 -3 c-1 -30 -6 -38 -21 -38 -13 0 -21 8 -23 23 -5 34 5 52 27 52 17 0 19
-6 17 -37z m254 -2 c0 -24 -5 -41 -14 -44 -20 -8 -26 2 -26 45 0 31 3 38 20
38 17 0 20 -7 20 -39z m60 30 c0 -6 -5 -13 -11 -16 -7 -5 -5 -15 5 -30 13 -20
13 -24 1 -29 -27 -10 -46 49 -23 72 14 14 28 16 28 3z m1190 -51 c0 -5 -4 -10
-10 -10 -5 0 -10 5 -10 10 0 6 5 10 10 10 6 0 10 -4 10 -10z m-1755 -116 c0
-16 4 -35 8 -41 5 -7 5 -17 2 -23 -9 -15 -32 -12 -39 6 -8 21 -8 79 1 88 14
13 28 -2 28 -30z m250 -4 c7 -42 2 -60 -20 -60 -12 0 -25 65 -17 89 9 26 31 8
37 -29z m255 -21 c0 -44 -3 -60 -12 -57 -24 8 -22 118 2 118 6 0 10 -27 10
-61z m-744 27 c9 -36 1 -60 -20 -64 -22 -5 -36 14 -36 49 0 30 7 39 31 39 11
0 21 -10 25 -24z m119 -21 c0 -33 -3 -40 -20 -40 -20 0 -21 6 -16 73 1 8 9 12
19 10 13 -2 17 -13 17 -43z m69 -2 c-1 -43 -11 -55 -35 -43 -21 12 -24 27 -9
65 13 35 45 20 44 -22z m182 37 c6 -6 8 -27 5 -48 -5 -28 -11 -37 -26 -37 -22
0 -31 30 -21 71 7 25 25 31 42 14z m307 3 c3 -5 8 -27 12 -50 6 -39 5 -43 -13
-43 -16 0 -21 8 -24 43 -5 44 -2 57 12 57 5 0 11 -3 13 -7z m314 -20 c13 -40
5 -73 -17 -73 -16 0 -19 8 -18 50 0 56 20 69 35 23z m259 16 c3 -6 2 -15 -4
-21 -7 -7 -7 -16 0 -28 13 -21 4 -50 -16 -50 -9 0 -16 14 -19 38 -6 53 19 93
39 61z m-1729 -31 c-3 -7 -5 -2 -5 12 0 14 2 19 5 13 2 -7 2 -19 0 -25z m783
-8 c0 -33 -3 -40 -20 -40 -17 0 -20 7 -20 40 0 33 3 40 20 40 17 0 20 -7 20
-40z m125 -2 c-1 -30 -5 -43 -16 -43 -9 0 -15 13 -17 43 -3 35 0 42 15 42 16
0 19 -7 18 -42z m133 6 c3 -34 -18 -60 -43 -50 -17 6 -19 24 -5 61 14 37 44
30 48 -11z m62 10 c10 -26 -1 -61 -24 -76 -19 -12 -25 2 -21 50 4 57 2 52 20
52 9 0 20 -12 25 -26z m185 -20 c0 -28 -4 -39 -15 -39 -16 0 -26 45 -16 72 11
28 31 7 31 -33z m116 13 c-8 -8 -6 -16 6 -29 13 -14 14 -21 5 -30 -15 -15 -27
-3 -36 34 -6 28 24 74 32 48 2 -6 -1 -17 -7 -23z m197 -20 c2 -36 0 -47 -11
-47 -18 0 -27 21 -27 59 0 62 34 51 38 -12z m230 20 c2 -16 10 -31 18 -34 8
-3 14 -11 14 -19 0 -10 -15 -13 -57 -11 -58 2 -58 2 -61 35 -5 53 3 63 45 60
33 -3 38 -7 41 -31z m146 8 c-8 -31 8 -33 21 -2 14 31 41 29 38 -3 l-3 -25 18
23 c15 19 26 23 58 20 33 -3 40 -7 42 -28 6 -40 22 -48 22 -12 0 40 31 55 91
46 39 -7 39 -7 33 -43 -8 -51 -12 -61 -23 -61 -5 0 -11 17 -13 37 -2 27 -8 39
-20 41 -21 4 -24 -28 -6 -58 17 -27 5 -34 -34 -21 -19 6 -55 11 -80 10 -24 -1
-50 1 -56 5 -6 4 -20 1 -31 -6 -17 -10 -23 -9 -39 5 -18 16 -20 17 -26 1 -9
-25 -36 1 -34 35 1 46 9 61 29 61 16 0 18 -5 13 -25z m-622 -20 c8 -33 -3 -51
-26 -42 -10 4 -16 18 -16 35 0 51 29 56 42 7z m194 8 c-3 -8 -6 -24 -6 -35 0
-14 -6 -19 -22 -16 -18 2 -22 9 -20 28 4 41 10 49 32 43 13 -4 19 -11 16 -20z
m1368 3 c-2 -20 12 -21 20 -1 9 25 45 18 52 -10 11 -42 -3 -75 -31 -75 -17 0
-25 6 -25 17 0 15 -1 15 -14 -2 -19 -27 -42 -13 -51 31 -5 30 -3 41 11 51 22
16 39 11 38 -11z m-437 -34 c1 -46 -10 -60 -32 -42 -18 15 -19 43 -4 71 16 31
34 17 36 -29z m65 2 c4 -36 -12 -61 -32 -49 -11 7 -14 77 -4 88 14 13 32 -7
36 -39z m53 15 c-5 -22 -3 -34 6 -40 12 -8 12 -11 -1 -18 -34 -23 -56 42 -24
73 23 23 26 20 19 -15z m63 14 c5 -10 7 -24 5 -30 -3 -7 0 -13 5 -13 6 0 12
10 14 23 2 14 11 23 26 25 20 3 22 -1 22 -37 l0 -41 -52 4 c-57 4 -66 15 -54
62 7 28 22 31 34 7z m129 -33 c-1 -50 -18 -68 -31 -34 -8 21 -8 69 1 77 19 20
31 4 30 -43z m309 18 c-11 -54 -46 -61 -46 -9 0 33 7 41 33 41 17 0 19 -5 13
-32z m104 20 c0 -5 4 -7 9 -3 5 3 12 1 16 -5 4 -6 12 -5 21 5 29 29 44 18 44
-30 0 -38 -3 -45 -19 -45 -14 0 -18 5 -14 18 3 13 -1 19 -12 19 -11 0 -15 -6
-12 -18 6 -22 -11 -29 -66 -29 -59 0 -71 10 -62 51 4 19 9 37 11 41 7 10 84 7
84 -4z m157 -5 c-2 -10 -8 -26 -12 -35 -5 -13 -2 -18 8 -18 9 0 18 13 22 31 8
35 26 34 36 -2 6 -23 7 -23 14 9 5 21 13 32 25 32 16 0 18 -8 17 -49 -3 -61
-9 -68 -42 -47 -20 13 -30 14 -46 6 -11 -6 -32 -10 -47 -8 -22 2 -27 8 -28 33
-2 40 12 65 38 65 15 0 19 -5 15 -17z m252 -1 c4 -7 5 -28 3 -47 -4 -37 -28
-48 -39 -19 -5 15 -7 15 -15 0 -6 -10 -22 -16 -43 -16 -33 0 -35 2 -35 34 0
61 6 67 67 63 30 -2 58 -9 62 -15z m177 -6 c11 -43 1 -81 -21 -81 -17 0 -20 7
-20 45 0 25 1 48 3 53 7 16 32 6 38 -17z m62 -18 c3 -38 -11 -78 -28 -78 -6 0
-10 27 -10 61 0 52 2 60 18 57 12 -2 18 -14 20 -40z m-1498 -33 c0 -8 -5 -17
-11 -21 -16 -9 -30 18 -17 33 12 15 28 8 28 -12z m1310 -7 c0 -7 -5 -20 -10
-28 -12 -20 -33 0 -24 23 7 20 34 23 34 5z m-1753 -24 c-3 -3 -12 -4 -19 -1
-8 3 -5 6 6 6 11 1 17 -2 13 -5z m1138 -14 c-3 -5 -17 -10 -31 -10 -14 0 -22
4 -19 10 3 6 17 10 31 10 14 0 22 -4 19 -10z m-3085 -171 c0 -5 -9 -9 -20 -9
-22 0 -27 16 -7 23 15 5 27 -1 27 -14z m68 -13 c14 -31 5 -66 -17 -66 -14 0
-18 9 -18 45 0 50 17 60 35 21z m460 -29 c2 -27 -1 -39 -13 -43 -28 -11 -38
10 -25 51 15 45 34 41 38 -8z m132 36 c0 -3 -8 -15 -17 -25 -14 -16 -15 -23
-5 -39 16 -25 8 -39 -18 -32 -15 4 -20 14 -20 42 0 20 5 42 12 49 13 13 48 17
48 5z m300 -43 c0 -21 -4 -42 -10 -45 -6 -4 -10 13 -10 45 0 32 4 49 10 45 6
-3 10 -24 10 -45z m-185 6 c-7 -36 6 -54 23 -33 5 6 11 21 13 31 8 39 29 29
29 -13 l0 -41 -45 0 c-42 0 -44 1 -51 34 -7 39 0 56 22 56 12 0 13 -8 9 -34z
m120 -10 c0 -57 -22 -58 -27 -1 -2 36 0 45 12 43 10 -2 15 -15 15 -42z m125
-1 c0 -33 -4 -45 -15 -45 -11 0 -13 8 -9 33 13 72 24 78 24 12z m117 33 c6 -7
13 -25 17 -39 4 -21 2 -28 -14 -32 -26 -7 -30 0 -30 45 0 39 10 48 27 26z
m-432 -12 c8 -7 12 -22 10 -32 -2 -10 -4 -22 -4 -26 -1 -5 -9 -8 -19 -8 -14 0
-17 7 -14 40 4 44 7 46 27 26z m382 -16 c-3 -10 0 -21 7 -24 7 -3 6 -8 -4 -15
-27 -19 -38 -12 -35 22 3 40 2 37 21 37 11 0 15 -6 11 -20z m180 -23 c-1 -21
-7 -32 -17 -32 -15 0 -17 30 -5 63 9 24 23 3 22 -31z m63 8 c0 -25 -4 -35 -15
-35 -21 0 -29 24 -15 49 16 32 30 25 30 -14z m63 18 c-7 -2 -13 -12 -13 -21 0
-12 -3 -13 -11 -5 -14 14 -3 33 19 32 11 0 12 -3 5 -6z m57 -24 c0 -38 -24
-35 -28 4 -2 19 1 27 12 27 11 0 16 -10 16 -31z m67 -4 c-13 -42 -31 -41 -35
3 -3 28 0 32 21 32 24 0 25 -2 14 -35z m-1537 15 c0 -5 -4 -10 -10 -10 -5 0
-10 5 -10 10 0 6 5 10 10 10 6 0 10 -4 10 -10z m1593 -10 c-8 -31 -23 -34 -23
-6 0 16 6 26 14 26 9 0 12 -7 9 -20z m-1558 -121 c0 -68 -49 -75 -53 -7 -1 17
5 31 16 37 30 18 37 12 37 -30z m47 29 c24 -19 31 -63 12 -78 -22 -19 -36 0
-37 49 -2 44 1 48 25 29z m469 -15 c1 -10 1 -22 0 -27 -1 -6 3 -20 10 -33 14
-26 7 -38 -16 -29 -20 7 -38 54 -30 83 6 27 34 31 36 6z m117 -5 c25 -25 8
-108 -23 -108 -18 0 -18 5 -4 31 12 24 3 59 -16 59 -8 0 -15 -12 -17 -27 -6
-48 -28 -39 -28 11 l0 46 38 0 c21 0 43 -5 50 -12z m70 -45 c-4 -39 -28 -42
-28 -4 0 21 5 31 16 31 11 0 14 -8 12 -27z m-698 -122 c0 -16 3 -36 6 -45 4
-11 0 -16 -15 -16 -22 0 -41 27 -34 50 3 8 6 21 8 28 9 25 35 13 35 -17z m64
-6 c8 -39 2 -55 -20 -55 -10 0 -14 12 -14 45 0 56 24 63 34 10z m824 13 c17
-17 15 -77 -3 -84 -21 -8 -45 14 -45 41 0 50 22 69 48 43z m70 -58 c-2 -24 -9
-36 -20 -38 -15 -3 -18 4 -18 46 0 27 3 52 7 56 14 13 34 -29 31 -64z m132 21
c0 -43 -22 -70 -42 -53 -7 5 -24 12 -38 14 -20 2 -26 9 -28 36 -2 17 1 32 7
32 21 0 41 -13 41 -26 0 -8 5 -14 11 -14 6 0 9 6 6 13 -5 15 22 49 34 41 5 -3
9 -22 9 -43z m56 -6 c-1 -37 -5 -55 -13 -55 -9 0 -13 18 -13 55 0 39 4 55 13
55 10 0 13 -16 13 -55z m114 31 c5 -14 10 -37 12 -53 3 -26 0 -28 -40 -34 -49
-6 -62 6 -62 60 0 51 72 73 90 27z m-485 -31 c0 -33 -4 -40 -19 -40 -28 0 -39
25 -27 58 17 44 46 32 46 -18z m602 34 c13 -13 152 -18 160 -6 7 11 41 8 49
-4 3 -6 1 -16 -4 -21 -6 -6 -8 -24 -5 -41 5 -22 3 -29 -7 -25 -14 4 -23 18
-36 53 -6 18 -8 16 -13 -10 -8 -39 -41 -48 -41 -11 0 14 -4 26 -10 26 -5 0
-10 -11 -10 -24 0 -32 -35 -41 -59 -15 -16 17 -19 18 -31 4 -22 -26 -30 -17
-30 35 0 51 12 64 37 39z m377 -5 c3 -9 6 -27 6 -40 0 -13 5 -24 10 -24 6 0
10 14 10 30 0 27 3 30 28 30 15 -1 36 0 47 2 15 2 20 -5 26 -37 8 -45 5 -55
-17 -55 -9 0 -14 10 -14 29 0 17 -4 33 -10 36 -6 3 -10 -4 -10 -17 0 -40 -13
-49 -66 -46 -49 3 -49 3 -50 38 -1 56 25 92 40 54z m251 -18 c9 -44 11 -86 5
-86 -20 0 -38 31 -43 71 -6 43 -5 47 13 42 11 -3 22 -15 25 -27z m-59 8 c-3
-9 -6 -34 -6 -56 0 -35 -2 -39 -15 -28 -15 12 -21 81 -8 93 13 14 35 7 29 -9z
m422 -47 c-4 -49 -25 -65 -65 -51 -22 7 -29 17 -31 42 -4 37 -25 39 -30 4 -5
-32 -22 -27 -22 6 0 30 30 52 72 52 17 0 20 -5 15 -28 -7 -33 6 -58 23 -47 8
5 10 20 7 40 -6 39 0 50 20 33 9 -7 13 -26 11 -51z m60 6 c2 -38 -1 -52 -13
-56 -12 -5 -15 4 -15 54 0 77 23 78 28 2z m58 33 c8 -35 1 -89 -13 -94 -10 -3
-13 13 -13 57 0 61 14 82 26 37z m-326 1 c21 -2 25 -8 28 -40 3 -35 1 -38 -19
-35 -15 2 -25 12 -29 28 -6 24 -7 23 -19 -12 -13 -39 -27 -48 -69 -47 -26 0
-26 1 -4 9 22 10 26 18 22 58 -2 32 19 55 44 47 12 -3 32 -7 46 -8z m-525 -53
c0 -10 -8 -20 -17 -22 -18 -3 -26 27 -11 42 12 11 28 0 28 -20z m-287 -31 c2
-9 -8 -13 -32 -13 -37 0 -49 15 -18 23 26 7 45 3 50 -10z m-1270 -29 c15 -4
16 -56 0 -72 -18 -18 -95 -15 -102 4 -25 66 17 95 102 68z m822 -44 c6 -57 24
-58 28 -2 2 28 8 42 18 42 8 0 14 -10 14 -24 0 -13 3 -38 6 -55 6 -31 6 -31
-34 -31 -46 0 -60 14 -72 67 -10 42 -5 55 18 51 12 -2 19 -17 22 -48z m375 40
c4 -6 12 -10 18 -9 28 5 47 -14 47 -45 0 -41 -10 -55 -46 -62 -46 -9 -72 39
-52 97 10 30 22 37 33 19z m115 -9 c14 -28 12 -74 -5 -97 -15 -20 -17 -18 -20
36 -1 19 -6 45 -10 58 -10 28 19 31 35 3z m-596 -55 c-10 -33 -22 -42 -42 -30
-25 16 -28 65 -5 81 16 12 20 11 36 -8 11 -14 15 -30 11 -43z m291 13 c1 -55
-4 -65 -20 -42 -16 23 -22 64 -11 81 15 25 31 5 31 -39z m-60 -9 c0 -18 -5
-35 -12 -37 -13 -5 -28 51 -18 67 13 21 30 3 30 -30z m183 31 c2 -1 2 -18 0
-38 -4 -44 -25 -56 -30 -17 -2 15 -9 29 -16 32 -9 3 -12 -5 -10 -24 2 -23 -1
-29 -17 -29 -15 0 -21 8 -23 28 -7 57 4 63 96 48z m1337 -1 c3 -5 1 -10 -4
-10 -6 0 -11 5 -11 10 0 6 2 10 4 10 3 0 8 -4 11 -10z m-1713 -62 c-8 -8 -9
-4 -5 13 4 13 8 18 11 10 2 -7 -1 -18 -6 -23z m-732 -80 c22 -41 5 -63 -53
-65 -51 -2 -70 12 -65 49 6 41 17 49 61 46 33 -2 44 -9 57 -30z m798 0 c6 -7
12 -29 14 -48 2 -29 0 -35 -17 -35 -15 0 -19 7 -20 30 0 39 -29 41 -33 3 -4
-32 -21 -38 -24 -8 -4 58 -6 56 63 69 4 0 11 -5 17 -11z m193 -16 c-5 -15 -4
-38 1 -51 10 -29 4 -38 -17 -21 -15 12 -21 80 -8 93 17 18 31 6 24 -21z m62
-8 c-8 -20 -33 -17 -33 4 0 10 3 22 7 25 10 11 32 -13 26 -29z m114 26 c10 0
13 -9 11 -32 -4 -42 -26 -47 -39 -9 -16 46 -32 27 -24 -29 6 -46 5 -48 -14
-43 -18 5 -21 13 -21 57 0 62 5 69 44 62 16 -3 35 -6 43 -6z m69 -14 c9 -38 1
-91 -16 -94 -12 -2 -15 10 -16 58 -1 43 3 60 12 60 8 0 16 -11 20 -24z m222
13 c56 -19 51 -60 -12 -93 -34 -18 -37 -18 -55 -2 -13 12 -27 15 -40 11 -22
-7 -24 -4 -35 48 -8 32 16 47 45 28 11 -6 19 -7 19 -2 0 8 13 14 41 20 3 0 20
-4 37 -10z m-775 -6 c3 -5 8 -22 11 -40 6 -26 4 -34 -14 -43 -16 -9 -25 -8
-36 1 -14 12 -20 70 -7 82 9 9 41 9 46 0z m242 -36 c0 -20 -4 -38 -9 -39 -12
-4 -28 52 -21 70 10 26 30 5 30 -31z m669 37 c20 -8 20 -33 0 -62 -22 -32 -34
-27 -34 16 0 49 6 57 34 46z m-724 -39 c0 -24 -5 -35 -15 -35 -10 0 -15 11
-15 35 0 24 5 35 15 35 10 0 15 -11 15 -35z m1270 -5 c0 -29 4 -40 15 -40 16
0 18 8 15 53 -1 21 3 27 19 27 18 0 21 -6 21 -39 0 -22 5 -43 10 -46 6 -4 10
6 10 23 0 29 21 58 33 45 4 -3 7 -23 7 -44 0 -30 -4 -38 -22 -43 -32 -8 -121
-7 -135 2 -31 20 -22 102 12 102 11 0 15 -12 15 -40z m858 7 c24 -50 -7 -106
-60 -107 -19 0 -48 43 -48 71 0 52 16 71 58 67 29 -2 40 -9 50 -31z m176 11
c15 -21 17 -21 29 -4 12 16 14 16 32 -4 14 -16 16 -23 7 -32 -10 -10 -17 -10
-32 0 -18 11 -20 10 -20 -10 0 -27 -37 -68 -62 -68 -64 0 -89 96 -34 132 23
16 65 8 80 -14z m-1511 6 c8 -8 -13 -64 -24 -64 -5 0 -9 16 -9 35 0 32 15 46
33 29z m178 -15 c17 -28 1 -79 -26 -79 -10 0 -12 9 -8 35 3 22 2 35 -5 35 -6
0 -12 -12 -14 -27 -3 -25 -7 -28 -43 -29 -68 -2 -78 10 -60 72 5 18 144 11
156 -7z m171 4 c28 -25 23 -50 -11 -58 -30 -6 -71 8 -71 25 0 12 41 50 54 50
5 0 18 -7 28 -17z m318 -18 c0 -19 4 -35 10 -35 5 0 7 6 4 14 -7 18 25 49 43
42 8 -3 28 -6 44 -6 25 0 29 -4 29 -27 0 -25 13 -25 16 0 0 7 2 20 2 30 1 9 8
17 16 17 15 0 20 -10 31 -66 l6 -31 -103 2 c-57 1 -109 4 -115 8 -14 9 -27 63
-18 77 15 24 35 9 35 -25z m966 0 c8 -47 -1 -81 -25 -88 -27 -7 -31 0 -20 30
5 13 9 40 9 59 0 47 27 46 36 -1z m131 18 c-2 -10 -8 -26 -12 -35 -4 -11 -3
-18 4 -18 6 0 13 11 17 25 10 39 44 33 45 -7 2 -32 2 -32 6 -5 l4 28 90 -2
c57 -1 94 2 102 10 28 28 49 5 40 -44 -4 -19 -2 -26 6 -21 6 4 11 21 11 37 0
23 6 32 27 40 50 19 67 9 78 -48 12 -61 17 -67 44 -58 17 5 21 15 21 49 0 53
16 72 42 49 14 -13 35 -17 79 -15 l59 2 1 -33 2 -32 6 35 c8 49 39 52 80 8 44
-47 38 -63 -24 -61 -53 2 -103 2 -145 -1 -14 -1 -34 1 -44 4 -12 4 -26 0 -38
-12 -22 -22 -47 -23 -93 -1 -31 15 -35 21 -35 55 0 21 -4 38 -10 38 -13 0 -13
-41 -1 -73 9 -22 7 -24 -17 -20 -15 3 -42 6 -59 6 -18 1 -33 6 -33 10 0 5 -5
5 -12 1 -14 -9 -210 -8 -239 1 -15 5 -19 4 -15 -4 10 -15 -17 -14 -32 1 -17
17 -15 74 4 92 21 22 48 21 41 -1z m898 -44 c9 -48 13 -54 37 -57 28 -3 31 2
40 63 3 17 12 21 55 23 50 3 51 2 58 -27 9 -42 -1 -54 -41 -48 -21 4 -37 1
-44 -8 -29 -35 -128 -21 -144 20 -8 22 -8 80 1 89 15 15 28 -4 38 -55z m365
42 c33 -62 -18 -120 -84 -95 -9 3 -16 17 -16 29 0 34 -18 41 -26 10 -8 -32
-34 -33 -34 -1 0 31 19 46 66 49 38 2 39 2 36 -32 -3 -24 0 -32 10 -29 7 3 14
23 16 46 3 45 15 54 32 23z m-2057 -10 c19 -15 19 -67 1 -82 -12 -9 -23 -9
-54 1 -39 13 -50 30 -50 78 0 21 4 22 45 19 24 -2 51 -9 58 -16z m184 -3 c16
-13 17 -50 1 -66 -7 -7 -30 -12 -53 -12 -23 0 -46 5 -53 12 -16 16 -15 61 1
77 14 14 82 7 104 -11z m223 -68 c-6 -4 -11 -11 -10 -16 1 -5 -3 -10 -9 -12
-16 -5 -13 10 6 38 11 16 18 19 21 11 2 -7 -1 -17 -8 -21z m300 10 c0 -11 -4
-20 -10 -20 -5 0 -10 9 -10 20 0 11 5 20 10 20 6 0 10 -9 10 -20z m-3402 -28
c8 -5 10 -16 6 -27 -5 -13 -4 -16 4 -11 7 4 12 14 12 22 0 27 43 12 51 -17 10
-40 -1 -48 -61 -46 -52 2 -55 3 -58 30 -2 16 2 35 9 43 13 16 19 17 37 6z
m219 -29 c-3 -10 -5 -4 -5 12 0 17 2 24 5 18 2 -7 2 -21 0 -30z m603 -7 c0
-11 3 -31 6 -43 5 -19 2 -23 -19 -23 -22 0 -26 6 -32 41 -5 29 -3 44 6 49 19
12 39 0 39 -24z m-277 15 c29 -11 45 -59 25 -72 -7 -5 -32 -9 -55 -9 -37 0
-43 3 -49 24 -13 52 24 78 79 57z m81 -16 c-3 -14 -1 -31 5 -39 14 -17 0 -29
-23 -20 -27 10 -18 84 10 84 10 0 13 -7 8 -25z m339 14 c36 -10 38 -12 35 -47
-2 -26 -8 -38 -20 -40 -15 -3 -18 4 -18 33 0 25 -4 35 -12 32 -14 -5 -14 -11
-3 -39 6 -14 2 -18 -18 -18 -31 0 -42 26 -28 64 12 30 12 30 64 15z m145 -1
c7 -7 12 -23 12 -36 0 -13 4 -20 10 -17 6 3 10 15 10 26 0 12 7 19 19 19 10 0
32 3 49 6 29 6 30 5 34 -37 3 -24 1 -48 -3 -53 -13 -14 -39 13 -39 41 0 14 -4
21 -10 18 -5 -3 -10 -17 -10 -31 0 -17 -5 -24 -19 -24 -11 0 -23 5 -26 10 -3
6 -17 7 -31 4 -22 -6 -24 -3 -24 25 0 21 -5 31 -15 31 -8 0 -15 -9 -15 -20 0
-11 5 -20 10 -20 6 0 10 -7 10 -15 0 -18 -31 -20 -48 -3 -18 18 -15 45 8 68
22 22 60 26 78 8z m-353 -7 c0 -1 1 -14 2 -30 3 -40 -16 -53 -63 -43 -30 6
-40 13 -42 31 -7 44 4 53 55 47 27 -2 48 -5 48 -5z m613 -23 c-2 -13 2 -25 7
-28 6 -3 11 7 13 23 4 37 32 36 32 -2 0 -34 -15 -49 -58 -57 -28 -6 -33 -3
-42 20 -13 34 2 66 31 66 15 0 19 -6 17 -22z m122 13 c0 -19 -23 -71 -31 -71
-5 0 -9 18 -9 40 0 33 3 40 20 40 11 0 20 -4 20 -9z m46 1 c19 -13 25 -59 9
-72 -24 -20 -45 -4 -45 33 0 44 11 56 36 39z m79 -2 c7 -12 -22 -70 -35 -70
-11 0 -14 63 -3 73 9 10 31 8 38 -3z m176 -11 c14 -23 10 -58 -8 -67 -15 -7
-52 -8 -93 -3 -16 2 -12 69 5 78 23 13 86 8 96 -8z m163 5 c22 -8 22 -70 0
-78 -31 -12 -82 -6 -88 10 -8 21 -8 59 1 67 8 9 66 9 87 1z m-1886 -106 c37
-47 14 -98 -44 -98 -52 0 -78 42 -58 94 8 20 87 22 102 4z m817 -65 c6 -41 6
-43 -19 -43 -23 0 -26 4 -24 31 4 44 -19 49 -30 7 -6 -23 -14 -32 -26 -30 -10
2 -24 -2 -32 -9 -23 -19 -44 -3 -44 33 0 52 11 62 62 54 24 -4 55 -3 69 3 30
11 35 6 44 -46z m180 1 c8 -68 -6 -91 -29 -47 -13 27 -13 48 0 91 8 29 22 8
29 -44z m166 41 c5 -4 9 -15 9 -25 0 -10 3 -27 7 -37 6 -15 8 -13 13 12 4 26
10 31 45 36 22 3 47 8 55 10 12 3 15 -6 15 -40 l0 -44 -112 -3 c-122 -3 -141
4 -127 48 6 20 5 21 -9 10 -9 -8 -21 -11 -27 -7 -14 9 -13 42 3 48 15 6 115
-1 128 -8z m284 -6 c31 -19 36 -26 30 -48 -9 -37 -21 -48 -54 -49 -33 -1 -46
11 -56 50 -5 19 -1 32 14 47 26 26 22 26 66 0z m-510 -36 c3 -36 0 -43 -15
-43 -19 0 -30 19 -30 51 0 11 -4 17 -10 14 -5 -3 -7 -19 -3 -35 5 -26 2 -30
-15 -30 -27 0 -31 8 -25 47 4 27 10 33 37 36 54 7 58 4 61 -40z m965 27 c20
-38 8 -82 -27 -103 -42 -24 -70 -10 -79 38 -9 50 16 85 61 85 24 0 37 -6 45
-20z m59 -31 c-14 -26 -29 -24 -29 4 0 30 10 40 26 26 10 -8 11 -16 3 -30z
m57 16 c14 -21 14 -30 4 -55 -21 -50 -39 -38 -35 23 2 28 4 53 5 55 1 8 12 -1
26 -23z m179 6 c13 -8 185 -5 208 4 9 4 23 3 30 -3 12 -10 15 -78 3 -89 -10
-10 -36 19 -37 41 -1 15 -3 12 -8 -9 -5 -24 -11 -30 -31 -28 -32 2 -121 2
-188 0 -51 -2 -54 -1 -67 30 -11 26 -11 34 2 53 12 17 21 20 46 14 18 -3 37
-9 42 -13z m-587 -18 l10 -28 1 28 c1 24 4 27 39 27 45 0 57 -8 65 -38 8 -33
-1 -52 -24 -52 -16 0 -19 6 -17 28 4 33 -25 39 -30 6 -3 -18 -10 -22 -48 -22
-40 -1 -44 1 -44 23 0 14 -4 25 -10 25 -5 0 -10 -11 -10 -25 0 -35 -37 -35
-46 0 -11 43 1 55 55 55 45 0 50 -3 59 -27z m898 -5 c-6 -33 -6 -33 5 -5 7 18
18 27 32 27 12 0 32 3 44 6 48 13 55 -71 8 -102 -22 -14 -27 -14 -56 0 -26 13
-29 13 -19 1 10 -13 9 -15 -10 -15 -28 0 -49 26 -50 62 0 40 10 58 32 58 17 0
19 -5 14 -32z m-436 -42 c0 -8 -4 -18 -10 -21 -5 -3 -10 3 -10 14 0 12 5 21
10 21 6 0 10 -6 10 -14z m-2056 -45 c20 -17 29 -60 15 -77 -15 -18 -107 -13
-120 7 -13 21 -11 56 6 72 17 18 77 16 99 -2z m409 -68 c4 -31 2 -53 -3 -53
-6 0 -10 19 -10 43 0 23 -3 53 -6 67 -4 18 -3 21 4 10 5 -8 12 -39 15 -67z
m2360 -42 c4 0 7 -9 7 -18 -1 -17 -1 -17 -14 0 -16 21 -30 22 -22 2 8 -21 -1
-19 -13 4 -10 18 -4 20 42 12z m-2776 -31 c7 0 17 -9 23 -20 8 -16 7 -27 -7
-50 -14 -24 -24 -30 -53 -30 -43 0 -60 15 -60 51 0 33 35 62 65 55 11 -3 25
-6 32 -6z m463 -25 c15 -18 6 -61 -16 -69 -22 -9 -34 1 -34 29 0 52 24 71 50
40z m110 -20 c0 -39 17 -48 22 -12 3 20 9 22 86 25 91 3 104 -5 86 -57 -8 -22
-16 -26 -51 -27 -23 -1 -50 4 -59 11 -12 8 -29 10 -52 4 -68 -15 -101 19 -66
69 22 32 34 27 34 -13z m318 -8 c2 -10 -4 -30 -13 -44 -15 -22 -19 -24 -32
-10 -11 10 -13 24 -8 46 5 26 11 32 28 29 12 -2 23 -11 25 -21z m104 13 c16 0
18 -3 9 -13 -6 -8 -9 -23 -6 -35 2 -13 -1 -22 -8 -22 -22 0 -39 17 -35 35 2
10 -3 20 -9 22 -9 3 -13 -6 -13 -27 0 -36 -23 -37 -28 -1 -6 40 5 54 39 47 18
-3 40 -6 51 -6z m187 -7 c-3 -34 1 -53 11 -53 6 0 10 9 10 19 0 30 11 51 26
51 10 0 14 -13 14 -45 l0 -45 -38 0 c-21 0 -43 5 -50 12 -13 13 -16 60 -5 71
13 14 34 7 32 -10z m-64 -33 c0 -35 0 -35 -48 -38 -54 -4 -68 12 -48 54 9 21
16 24 53 22 42 -3 43 -4 43 -38z m243 28 c29 -29 -2 -97 -37 -82 -9 4 -28 9
-43 12 -29 4 -33 17 -22 60 5 18 13 22 48 22 23 0 47 -5 54 -12z m1569 -40
c-3 -8 -6 -5 -6 6 -1 11 2 17 5 13 3 -3 4 -12 1 -19z m-2893 -91 c16 -45 -1
-62 -65 -62 l-54 0 -3 37 c-4 47 22 67 75 59 29 -5 40 -12 47 -34z m444 -11
c4 -32 -13 -56 -38 -56 -28 0 -33 41 -8 67 27 29 42 25 46 -11z m160 21 c15
-17 -4 -90 -21 -84 -11 3 -18 72 -9 90 5 11 18 8 30 -6z m-53 -42 c0 -36 -3
-45 -17 -45 -22 0 -33 41 -18 69 19 36 35 25 35 -24z m117 -6 c-3 -40 -4 -41
-26 -33 -19 7 -21 45 -4 62 20 20 33 7 30 -29z m58 1 c0 -34 -3 -40 -21 -40
-18 0 -20 4 -14 33 14 62 35 66 35 7z m64 18 c-7 -22 -28 -48 -38 -48 -6 0 2
47 11 63 2 4 11 7 19 7 11 0 13 -6 8 -22z m251 -23 l0 -30 -87 -3 c-92 -3
-104 2 -94 43 6 24 9 24 94 22 l87 -2 0 -30z m-1040 -88 c21 -18 25 -28 20
-50 -6 -21 -16 -29 -47 -38 -52 -13 -88 7 -88 51 0 59 65 80 115 37z m609 -9
c3 -7 7 -30 10 -51 4 -35 3 -38 -17 -35 -19 3 -22 10 -25 51 -2 37 0 47 13 47
8 0 17 -6 19 -12z m71 -43 c0 -33 -4 -41 -21 -43 -16 -2 -23 3 -26 21 -7 35 9
69 29 65 14 -2 18 -13 18 -43z m285 31 c25 -2 53 -7 63 -11 23 -10 22 -52 -2
-65 -28 -14 -29 -13 -34 18 -4 26 -4 27 -12 4 -7 -21 -13 -23 -59 -20 -37 2
-51 7 -52 18 -3 32 -6 34 -14 13 -14 -35 -40 -29 -40 8 0 17 -4 28 -10 24 -5
-3 -10 -20 -10 -36 0 -23 -4 -30 -17 -27 -19 3 -38 51 -29 74 6 15 18 15 216
0z m-967 -115 c50 -19 45 -83 -8 -101 -56 -19 -95 7 -95 64 0 43 45 59 103 37z
m743 -46 c10 -32 12 -35 13 -14 1 24 17 49 32 49 4 0 11 -9 14 -21 5 -13 10
-17 18 -11 7 5 44 12 84 15 61 5 75 3 97 -14 13 -10 29 -19 35 -19 6 0 11 -11
11 -24 0 -27 -15 -34 -70 -32 -30 1 -35 5 -38 29 -2 15 -8 27 -13 27 -6 0 -8
-4 -5 -9 15 -24 -6 -39 -52 -37 -42 1 -47 4 -51 26 l-4 25 -7 -25 c-4 -18 -13
-25 -31 -26 -13 0 -29 -2 -34 -5 -21 -11 -71 -8 -86 4 -32 24 -32 53 0 80 44
36 72 31 87 -18z m539 24 c3 -4 11 -6 18 -3 7 2 21 -2 31 -9 17 -13 17 -15 2
-45 -9 -17 -24 -31 -33 -31 -10 -1 -51 -3 -91 -5 -68 -4 -74 -3 -88 19 -24 37
-10 65 31 65 19 0 36 4 40 9 7 12 83 12 90 0z m190 -61 c-14 -36 -75 -25 -75
13 0 29 40 42 63 20 10 -10 15 -24 12 -33z m-1585 -53 c0 -10 15 -12 59 -8 53
5 60 3 75 -18 23 -33 20 -73 -6 -92 -22 -15 -22 -16 -3 -17 17 0 17 -2 5 -10
-13 -8 -13 -10 1 -10 20 0 29 -20 29 -60 0 -35 -12 -44 -62 -42 -26 1 -38 -2
-38 -11 0 -8 -11 -20 -25 -27 -14 -7 -25 -18 -26 -24 -1 -6 -5 5 -10 24 -7 29
-5 38 12 53 12 9 16 17 9 17 -10 0 -10 3 0 15 7 8 8 15 3 15 -5 0 -9 9 -10 20
-1 16 4 20 28 20 18 0 28 5 26 13 -1 7 6 11 17 9 11 -2 15 1 11 7 -9 16 -41
13 -55 -4 -8 -9 -21 -13 -34 -10 -17 5 -18 4 -6 -4 12 -8 12 -11 1 -11 -7 0
-11 -6 -8 -15 4 -8 2 -17 -2 -19 -10 -6 -21 102 -21 199 l1 70 14 -34 c8 -18
15 -39 15 -46z m1270 -37 c39 -43 14 -98 -46 -98 -36 0 -53 20 -55 62 0 13 -3
17 -6 11 -8 -22 -43 -15 -43 7 0 25 29 38 40 20 7 -11 12 -10 25 3 23 23 60
21 85 -5z m161 11 c31 -16 43 -57 25 -85 -21 -31 -52 -39 -81 -20 -47 31 -27
100 33 115 2 1 12 -4 23 -10z m-508 -41 c6 -47 -1 -62 -26 -52 -11 4 -17 18
-18 38 l-1 31 -13 -32 c-11 -23 -19 -30 -34 -26 -10 2 -22 0 -25 -6 -10 -16
-41 -14 -56 4 -19 23 -3 75 24 75 12 0 27 -5 34 -12 8 -8 15 -8 24 -1 7 6 22
13 33 16 47 11 52 8 58 -35z m178 15 c0 -16 2 -36 4 -45 4 -22 -8 -30 -29 -22
-16 6 -23 73 -9 87 15 16 33 5 34 -20z m497 11 c29 -12 66 -15 177 -12 l140 3
-1 -35 c0 -28 -5 -35 -20 -35 -13 0 -20 9 -24 30 -4 20 -8 26 -13 17 -5 -7 -5
-21 -2 -32 6 -19 1 -19 -117 -19 -68 0 -141 0 -163 -1 -59 -2 -85 42 -48 82
20 22 24 22 71 2z m-558 -34 c0 -30 -4 -40 -16 -40 -9 0 -18 9 -21 20 -3 11
-9 20 -13 20 -5 0 -6 -9 -3 -20 4 -15 0 -20 -15 -20 -15 0 -22 9 -27 30 -9 41
-2 47 50 48 l45 1 0 -39z m1098 24 c26 -18 28 -41 5 -66 -21 -24 -32 -23 -26
2 3 11 2 28 -2 37 -6 16 -8 16 -25 -5 l-19 -22 -16 22 c-17 23 -17 23 -10 -10
l7 -33 -59 3 c-57 3 -58 3 -58 33 0 28 3 30 42 36 24 3 46 8 49 12 13 13 89 7
112 -9z m-1276 -131 c39 -35 13 -83 -45 -83 -28 0 -43 14 -52 52 -5 19 -2 29
12 37 27 16 64 13 85 -6z m256 -26 c4 -45 -14 -54 -102 -51 -67 3 -81 12 -72
48 6 24 11 26 64 26 31 0 64 5 72 10 24 15 35 6 38 -33z m266 17 c26 -25 18
-69 -14 -75 -8 -2 -27 0 -42 4 -29 8 -45 43 -34 72 7 20 70 20 90 -1z m-450
-16 c-13 -46 -44 -65 -44 -29 0 33 11 51 32 51 15 0 18 -4 12 -22z m300 -4 c9
-22 -13 -46 -38 -42 -15 2 -22 12 -24 31 -3 24 0 27 26 27 18 0 32 -6 36 -16z"/>
<path d="M1405 4929 c-4 -6 -5 -13 -2 -16 7 -7 27 6 27 18 0 12 -17 12 -25 -2z"/>
<path d="M1985 4440 c-3 -5 -1 -10 4 -10 6 0 11 5 11 10 0 6 -2 10 -4 10 -3 0
-8 -4 -11 -10z"/>
<path d="M1475 4290 c-3 -5 -2 -10 4 -10 5 0 13 5 16 10 3 6 2 10 -4 10 -5 0
-13 -4 -16 -10z"/>
<path d="M1510 4293 c0 -6 8 -17 18 -24 16 -13 16 -13 2 6 -8 11 -16 22 -17
24 -2 2 -3 0 -3 -6z"/>
<path d="M2152 4271 c2 -7 7 -12 11 -12 12 1 9 15 -3 20 -7 2 -11 -2 -8 -8z"/>
<path d="M1615 3621 c-9 -30 4 -63 23 -59 12 2 17 14 17 38 0 40 -29 55 -40
21z"/>
<path d="M1865 3447 c-4 -10 -5 -21 -1 -24 10 -10 18 4 13 24 -4 17 -4 17 -12
0z"/>
<path d="M2175 3440 c-3 -6 -3 -19 0 -31 5 -16 10 -18 21 -8 18 15 18 49 0 49
-8 0 -18 -5 -21 -10z"/>
<path d="M3247 3413 c4 -11 3 -14 -5 -9 -7 4 -12 3 -12 -2 0 -6 7 -12 15 -16
11 -4 15 1 15 19 0 14 -4 25 -10 25 -5 0 -6 -7 -3 -17z"/>
<path d="M3605 3400 c-3 -5 -1 -10 4 -10 6 0 11 5 11 10 0 6 -2 10 -4 10 -3 0
-8 -4 -11 -10z"/>
<path d="M1270 2798 c0 -26 12 -58 22 -58 14 0 5 63 -9 68 -7 2 -13 -2 -13
-10z"/>
<path d="M94 2658 c-4 -7 -3 -8 4 -4 8 4 12 0 12 -10 0 -13 3 -15 11 -7 12 12
4 33 -11 33 -5 0 -12 -5 -16 -12z"/>
<path d="M1346 2631 c-9 -14 5 -42 18 -38 15 5 14 39 -1 44 -6 2 -14 0 -17 -6z"/>
<path d="M107 2514 c-11 -11 -8 -54 3 -54 6 0 13 6 16 14 7 17 -9 50 -19 40z"/>
<path d="M1576 2481 c-9 -14 4 -41 21 -41 9 0 13 8 11 22 -3 23 -23 35 -32 19z"/>
<path d="M3095 2459 c-11 -16 4 -59 20 -59 20 0 28 17 21 46 -7 25 -30 32 -41
13z"/>
<path d="M3275 2460 c-12 -20 4 -62 23 -58 23 4 24 61 0 66 -9 2 -19 -2 -23
-8z"/>
<path d="M1900 2450 c0 -5 5 -10 10 -10 6 0 10 5 10 10 0 6 -4 10 -10 10 -5 0
-10 -4 -10 -10z"/>
<path d="M2140 2444 c0 -8 5 -12 10 -9 6 3 10 10 10 16 0 5 -4 9 -10 9 -5 0
-10 -7 -10 -16z"/>
<path d="M4315 2430 c-7 -12 2 -30 16 -30 5 0 9 9 9 20 0 21 -15 27 -25 10z"/>
<path d="M620 2315 c0 -8 5 -15 10 -15 6 0 10 7 10 15 0 8 -4 15 -10 15 -5 0
-10 -7 -10 -15z"/>
<path d="M805 2310 c-7 -12 2 -30 16 -30 5 0 9 9 9 20 0 21 -15 27 -25 10z"/>
<path d="M1835 2291 c-7 -12 12 -24 25 -16 11 7 4 25 -10 25 -5 0 -11 -4 -15
-9z"/>
<path d="M2023 2285 c0 -18 19 -15 25 3 2 7 -3 12 -10 12 -8 0 -15 -7 -15 -15z"/>
<path d="M137 2173 c-4 -3 -7 -11 -7 -17 0 -6 5 -5 12 2 6 6 9 14 7 17 -3 3
-9 2 -12 -2z"/>
<path d="M870 2156 c0 -8 5 -18 10 -21 6 -3 10 3 10 14 0 12 -4 21 -10 21 -5
0 -10 -6 -10 -14z"/>
<path d="M1296 2161 c-4 -7 -5 -15 -2 -18 9 -9 19 4 14 18 -4 11 -6 11 -12 0z"/>
<path d="M1594 2156 c-4 -10 -2 -22 4 -28 8 -8 13 -7 18 6 4 10 2 22 -4 28 -8
8 -13 7 -18 -6z"/>
<path d="M2010 2141 c0 -25 4 -31 21 -31 16 0 20 5 17 27 -2 17 -10 29 -20 31
-14 3 -18 -3 -18 -27z m30 -5 c0 -3 -4 -8 -10 -11 -5 -3 -10 -1 -10 4 0 6 5
11 10 11 6 0 10 -2 10 -4z"/>
<path d="M2323 2155 c-6 -11 -7 -29 -3 -40 7 -18 8 -18 15 7 10 37 2 59 -12
33z"/>
<path d="M2752 2130 c0 -14 2 -19 5 -12 2 6 2 18 0 25 -3 6 -5 1 -5 -13z"/>
<path d="M147 1886 c-3 -8 1 -17 8 -20 20 -7 28 9 11 23 -10 9 -15 8 -19 -3z"/>
<path d="M890 1844 c0 -8 5 -12 10 -9 6 3 10 10 10 16 0 5 -4 9 -10 9 -5 0
-10 -7 -10 -16z"/>
<path d="M1255 1857 c-4 -10 -5 -21 -1 -24 10 -10 18 4 13 24 -4 17 -4 17 -12
0z"/>
<path d="M904 1417 c-8 -22 11 -46 26 -31 7 7 5 17 -4 30 -14 18 -15 18 -22 1z"/>
<path d="M1091 1394 c0 -11 3 -14 6 -6 3 7 2 16 -1 19 -3 4 -6 -2 -5 -13z"/>
<path d="M1210 1389 c0 -11 5 -17 10 -14 6 3 10 13 10 21 0 8 -4 14 -10 14 -5
0 -10 -9 -10 -21z"/>
<path d="M1507 1400 c-3 -11 -1 -20 4 -20 5 0 9 9 9 20 0 11 -2 20 -4 20 -2 0
-6 -9 -9 -20z"/>
<path d="M100 1296 c0 -9 7 -16 16 -16 17 0 14 22 -4 28 -7 2 -12 -3 -12 -12z"/>
<path d="M132 1220 c0 -14 2 -19 5 -12 2 6 2 18 0 25 -3 6 -5 1 -5 -13z"/>
<path d="M120 1059 c0 -5 5 -7 10 -4 6 3 10 8 10 11 0 2 -4 4 -10 4 -5 0 -10
-5 -10 -11z"/>
<path d="M1320 1256 c0 -33 16 -42 30 -16 12 23 6 40 -16 40 -8 0 -14 -10 -14
-24z"/>
<path d="M1495 1270 c-9 -15 4 -50 20 -50 19 0 25 13 18 38 -6 23 -27 29 -38
12z"/>
<path d="M1670 1256 c0 -17 5 -26 16 -26 10 0 14 7 12 22 -5 32 -28 35 -28 4z"/>
<path d="M914 1129 c-10 -17 13 -36 27 -22 12 12 4 33 -11 33 -5 0 -12 -5 -16
-11z"/>
<path d="M1100 1110 c0 -5 5 -10 10 -10 6 0 10 5 10 10 0 6 -4 10 -10 10 -5 0
-10 -4 -10 -10z"/>
<path d="M1445 1119 c-4 -6 -5 -13 -2 -16 7 -7 27 6 27 18 0 12 -17 12 -25 -2z"/>
<path d="M3355 2230 c-3 -5 -1 -10 4 -10 6 0 11 5 11 10 0 6 -2 10 -4 10 -3 0
-8 -4 -11 -10z"/>
<path d="M2963 2215 c-9 -24 1 -27 15 -5 8 13 8 20 2 20 -6 0 -13 -7 -17 -15z"/>
<path d="M3274 2205 c3 -8 1 -15 -4 -15 -6 0 -10 5 -10 10 0 6 -4 10 -10 10
-20 0 -9 -35 28 -84 75 -100 106 -196 65 -196 -16 -1 -16 -2 2 -16 14 -11 17
-17 8 -22 -16 -10 -5 -52 13 -52 9 0 14 -12 15 -32 l1 -33 8 33 c10 45 39 75
56 61 14 -11 191 -15 201 -5 4 3 -7 7 -23 7 -25 2 -25 2 -6 6 15 3 22 10 18
18 -2 7 2 19 9 25 12 10 7 21 -30 65 -43 50 -79 72 -90 55 -9 -14 -53 1 -51
18 0 9 -3 17 -9 17 -5 0 -16 4 -22 8 -7 5 -13 5 -14 0 -1 -4 -4 3 -8 17 -4 14
-13 24 -20 22 -6 -1 -14 5 -17 13 -4 8 -13 15 -21 15 -10 0 -14 7 -10 20 3 11
1 20 -4 20 -5 0 -9 -9 -9 -20 0 -11 -4 -20 -10 -20 -5 0 -10 7 -10 15 0 21
-18 19 -23 -2 -3 -10 -5 -1 -6 20 0 20 -6 37 -12 37 -6 0 -9 -7 -5 -15z m343
-301 c-3 -3 -12 -4 -19 -1 -8 3 -5 6 6 6 11 1 17 -2 13 -5z"/>
<path d="M3500 2060 c0 -5 5 -10 10 -10 6 0 10 5 10 10 0 6 -4 10 -10 10 -5 0
-10 -4 -10 -10z"/>
<path d="M3670 2040 c0 -5 5 -10 10 -10 6 0 10 5 10 10 0 6 -4 10 -10 10 -5 0
-10 -4 -10 -10z"/>
<path d="M3290 1890 c0 -5 5 -10 11 -10 5 0 7 5 4 10 -3 6 -8 10 -11 10 -2 0
-4 -4 -4 -10z"/>
<path d="M1665 1857 c-19 -15 -13 -37 11 -37 8 0 14 10 14 25 0 29 0 29 -25
12z"/>
<path d="M3277 1843 c-4 -3 -7 -16 -6 -27 0 -19 1 -19 10 3 10 24 8 36 -4 24z"/>
<path d="M2915 1830 c-3 -5 -1 -10 4 -10 6 0 11 5 11 10 0 6 -2 10 -4 10 -3 0
-8 -4 -11 -10z"/>
<path d="M3217 1834 c-4 -4 -7 -17 -7 -28 1 -19 1 -20 11 -3 11 19 8 43 -4 31z"/>
<path d="M3330 1826 c0 -7 7 -13 15 -13 8 0 15 4 15 8 0 4 -7 9 -15 13 -9 3
-15 0 -15 -8z"/>
<path d="M1367 1707 c-3 -8 -1 -20 4 -28 8 -12 10 -12 19 1 5 8 8 19 7 24 -5
16 -24 18 -30 3z"/>
<path d="M4860 1529 c1 -21 27 -52 39 -44 14 8 14 45 1 45 -5 0 -10 -6 -10
-12 0 -8 -7 -5 -15 6 -11 14 -15 16 -15 5z"/>
<path d="M712 1468 c9 -7 18 -20 21 -28 3 -8 6 -3 6 13 1 21 -3 27 -21 27 -19
0 -20 -2 -6 -12z"/>
<path d="M2115 1470 c-3 -5 -1 -10 4 -10 6 0 11 5 11 10 0 6 -2 10 -4 10 -3 0
-8 -4 -11 -10z"/>
<path d="M2375 1470 c-3 -5 -1 -10 4 -10 6 0 11 5 11 10 0 6 -2 10 -4 10 -3 0
-8 -4 -11 -10z"/>
<path d="M700 1451 c0 -5 5 -13 10 -16 6 -3 10 -2 10 4 0 5 -4 13 -10 16 -5 3
-10 2 -10 -4z"/>
<path d="M2260 1405 c-10 -12 -10 -18 0 -30 15 -18 30 -11 30 15 0 26 -15 33
-30 15z"/>
<path d="M1800 1390 c0 -11 5 -20 10 -20 6 0 10 9 10 20 0 11 -4 20 -10 20 -5
0 -10 -9 -10 -20z"/>
<path d="M5112 1370 c0 -14 2 -19 5 -12 2 6 2 18 0 25 -3 6 -5 1 -5 -13z"/>
<path d="M3060 1330 c0 -5 6 -10 14 -10 8 0 21 -7 30 -15 13 -14 15 -13 13 4
0 11 -5 17 -9 15 -4 -3 -17 0 -28 6 -13 7 -20 7 -20 0z"/>
<path d="M2980 1320 c0 -5 5 -10 11 -10 5 0 7 5 4 10 -3 6 -8 10 -11 10 -2 0
-4 -4 -4 -10z"/>
<path d="M3620 1320 c0 -5 7 -7 15 -4 8 4 15 8 15 10 0 2 -7 4 -15 4 -8 0 -15
-4 -15 -10z"/>
<path d="M3143 1308 c-6 -7 -7 -35 -4 -63 l6 -50 13 34 c10 28 10 36 0 43 -9
5 -6 8 10 8 13 0 22 6 22 15 0 18 -12 19 -29 3 -10 -11 -11 -10 -6 5 8 20 2
22 -12 5z"/>
<path d="M3670 1311 c0 -5 5 -13 10 -16 6 -3 10 -2 10 4 0 5 -4 13 -10 16 -5
3 -10 2 -10 -4z"/>
<path d="M3040 1300 c0 -5 9 -10 20 -10 11 0 20 5 20 10 0 6 -9 10 -20 10 -11
0 -20 -4 -20 -10z"/>
<path d="M3455 1300 c-3 -5 -1 -10 4 -10 6 0 11 5 11 10 0 6 -2 10 -4 10 -3 0
-8 -4 -11 -10z"/>
<path d="M3660 1230 c0 -27 -6 -45 -22 -60 -12 -11 -16 -20 -10 -20 7 0 21 15
32 33 21 34 27 87 10 87 -5 0 -10 -18 -10 -40z"/>
<path d="M2370 1244 c0 -8 5 -12 10 -9 6 3 10 10 10 16 0 5 -4 9 -10 9 -5 0
-10 -7 -10 -16z"/>
<path d="M2732 1240 c0 -14 2 -19 5 -12 2 6 2 18 0 25 -3 6 -5 1 -5 -13z"/>
<path d="M3537 1253 c-12 -11 -8 -40 7 -52 15 -13 26 4 26 40 0 18 -20 26 -33
12z"/>
<path d="M3727 1235 c-5 -12 -4 -21 2 -23 6 -2 11 -11 11 -21 0 -32 23 -49 57
-44 18 3 30 9 27 14 -3 5 -10 7 -15 4 -5 -4 -9 3 -9 15 0 12 -4 18 -10 15 -5
-3 -10 1 -10 9 0 9 -4 16 -10 16 -5 0 -10 -5 -10 -12 0 -18 -17 3 -22 27 -4
20 -4 20 -11 0z"/>
<path d="M4431 1164 c0 -11 3 -14 6 -6 3 7 2 16 -1 19 -3 4 -6 -2 -5 -13z"/>
<path d="M4465 1160 c-3 -5 -1 -10 4 -10 6 0 11 5 11 10 0 6 -2 10 -4 10 -3 0
-8 -4 -11 -10z"/>
<path d="M3966 1145 c4 -8 10 -15 15 -15 4 0 6 7 3 15 -4 8 -10 15 -15 15 -4
0 -6 -7 -3 -15z"/>
<path d="M3660 1130 c-14 -27 -9 -83 8 -86 7 -1 8 0 2 3 -16 8 -12 73 5 79 17
7 21 24 5 24 -5 0 -14 -9 -20 -20z"/>
<path d="M4471 1093 c0 -12 -4 -30 -7 -40 -5 -14 -4 -15 5 -7 7 6 11 24 8 40
-3 21 -4 23 -6 7z"/>
<path d="M3021 1084 c0 -11 3 -14 6 -6 3 7 2 16 -1 19 -3 4 -6 -2 -5 -13z"/>
<path d="M3711 1084 c0 -11 3 -14 6 -6 3 7 2 16 -1 19 -3 4 -6 -2 -5 -13z"/>
<path d="M3186 1075 c-3 -8 -1 -15 4 -15 6 0 10 7 10 15 0 8 -2 15 -4 15 -2 0
-6 -7 -10 -15z"/>
<path d="M4345 1059 c-4 -6 -5 -12 -2 -15 2 -3 7 2 10 11 7 17 1 20 -8 4z"/>
<path d="M1620 981 c0 -20 13 -41 21 -35 15 9 10 44 -6 44 -8 0 -15 -4 -15 -9z"/>
<path d="M1510 955 c0 -15 4 -24 10 -20 6 3 10 12 10 20 0 8 -4 17 -10 20 -6
4 -10 -5 -10 -20z"/>
<path d="M160 921 c-7 -15 -7 -21 0 -21 12 0 25 28 17 36 -3 3 -10 -4 -17 -15z"/>
<path d="M975 920 c-3 -5 -1 -10 4 -10 6 0 11 5 11 10 0 6 -2 10 -4 10 -3 0
-8 -4 -11 -10z"/>
<path d="M623 805 c0 -22 2 -30 4 -17 2 12 2 30 0 40 -3 9 -5 -1 -4 -23z"/>
<path d="M140 820 c0 -5 7 -10 15 -10 8 0 15 5 15 10 0 6 -7 10 -15 10 -8 0
-15 -4 -15 -10z"/>
<path d="M165 781 c-3 -5 -1 -12 5 -16 5 -3 10 1 10 9 0 18 -6 21 -15 7z"/>
<path d="M570 770 c0 -5 5 -10 10 -10 6 0 10 5 10 10 0 6 -4 10 -10 10 -5 0
-10 -4 -10 -10z"/>
<path d="M151 691 c-17 -30 -13 -55 9 -69 17 -10 20 -10 20 3 0 8 -4 15 -9 15
-9 0 -24 30 -18 37 2 2 18 -10 35 -27 20 -19 37 -27 48 -23 13 5 9 10 -20 25
-20 10 -36 25 -36 33 0 23 -18 27 -29 6z"/>
<path d="M485 700 c3 -5 8 -10 11 -10 2 0 4 5 4 10 0 6 -5 10 -11 10 -5 0 -7
-4 -4 -10z"/>
<path d="M1100 676 c0 -12 -6 -13 -31 -6 -26 8 -29 7 -19 -5 7 -8 19 -15 26
-15 8 0 14 -8 14 -19 0 -25 47 -43 102 -40 24 2 49 -1 56 -5 6 -4 20 -3 29 2
10 5 24 7 31 5 16 -6 15 12 -1 29 -8 7 -16 20 -20 28 -4 12 -6 11 -6 -2 -1
-22 -27 -24 -35 -3 -4 10 -20 15 -53 15 -28 0 -58 7 -71 16 -19 13 -22 13 -22
0z"/>
<path d="M1449 672 c5 -10 18 -25 27 -33 15 -12 9 -15 -57 -19 -57 -4 -74 -8
-74 -20 0 -12 11 -14 50 -12 28 2 68 -1 91 -6 36 -8 43 -7 53 10 10 16 19 19
48 13 19 -3 43 -10 52 -15 9 -5 24 -11 34 -14 11 -4 17 -16 17 -36 0 -21 4
-29 11 -24 14 8 4 90 -12 110 -8 10 -39 14 -105 14 -71 0 -96 4 -108 16 -9 8
-16 20 -16 25 0 5 -5 9 -10 9 -7 0 -7 -6 -1 -18z"/>
<path d="M778 653 c-27 -2 -48 -8 -48 -13 0 -5 -14 -10 -32 -12 -40 -4 -50
-27 -11 -27 131 0 195 -7 208 -24 14 -19 49 -13 42 7 -3 8 7 10 32 8 47 -6 61
-18 61 -53 0 -18 5 -29 14 -29 7 0 19 -7 26 -15 7 -8 20 -15 29 -15 14 1 14 2
-1 14 -30 22 -39 60 -20 87 14 21 14 22 -1 16 -11 -4 -14 -2 -11 7 7 18 -62
31 -81 16 -11 -9 -21 -6 -43 10 -32 23 -82 30 -164 23z"/>
<path d="M650 540 c0 -16 4 -30 8 -30 5 0 7 14 4 30 -2 17 -6 30 -8 30 -2 0
-4 -13 -4 -30z"/>
<path d="M1577 563 c-3 -5 -2 -15 2 -22 7 -10 10 -10 16 -1 4 6 3 16 -3 22 -5
5 -12 6 -15 1z"/>
<path d="M776 551 c-4 -7 -5 -15 -2 -18 9 -9 19 4 14 18 -4 11 -6 11 -12 0z"/>
<path d="M296 494 c-6 -16 8 -33 27 -34 12 0 8 27 -7 39 -11 9 -15 8 -20 -5z"/>
<path d="M1140 370 c0 -5 5 -10 10 -10 6 0 10 5 10 10 0 6 -4 10 -10 10 -5 0
-10 -4 -10 -10z"/>
<path d="M1125 340 c3 -5 8 -10 11 -10 2 0 4 5 4 10 0 6 -5 10 -11 10 -5 0 -7
-4 -4 -10z"/>
<path d="M1160 340 c0 -5 7 -10 16 -10 8 0 12 5 9 10 -3 6 -10 10 -16 10 -5 0
-9 -4 -9 -10z"/>
<path d="M1082 270 c0 -14 2 -19 5 -12 2 6 2 18 0 25 -3 6 -5 1 -5 -13z"/>
<path d="M1602 123 c-6 -2 -10 -9 -6 -14 8 -14 40 -11 54 6 10 13 9 15 -11 14
-13 0 -30 -3 -37 -6z"/>
<path d="M1550 110 c0 -5 5 -10 10 -10 6 0 10 5 10 10 0 6 -4 10 -10 10 -5 0
-10 -4 -10 -10z"/>
<path d="M1680 48 c0 -15 -8 -31 -17 -37 -13 -7 -9 -9 20 -9 20 0 34 4 31 9
-3 5 -12 21 -20 37 l-14 27 0 -27z"/>
<path d="M5096 38 c-21 -30 -20 -38 4 -38 16 0 20 7 20 30 0 36 -4 37 -24 8z"/>
<path d="M4995 10 c-3 -5 -1 -10 4 -10 6 0 11 5 11 10 0 6 -2 10 -4 10 -3 0
-8 -4 -11 -10z"/>
</g>
</svg>
